<?xml version="1.0" encoding="UTF-8" standalone="no"?>
<!DOCTYPE svg PUBLIC "-//W3C//DTD SVG 1.0//EN" "http://www.w3.org/TR/2001/PR-SVG-20010719/DTD/svg10.dtd">
<svg width="43cm" height="36cm" viewBox="348 -7664 857 701" xmlns="http://www.w3.org/2000/svg" xmlns:xlink="http://www.w3.org/1999/xlink">
  <g>
    <rect style="fill: #ffffff" x="446.351" y="-7401.12" width="82.75" height="38"/>
    <rect style="fill: none; fill-opacity:0; stroke-width: 2; stroke: #000000" x="446.351" y="-7401.12" width="82.75" height="38"/>
    <text style="fill: #000000;text-anchor:middle;font-size:12.7998;font-family:sanserif;font-style:normal;font-weight:normal" x="487.726" y="-7378.22">
      <tspan x="487.726" y="-7378.22">RUNNING</tspan>
    </text>
  </g>
  <g>
    <rect style="fill: #ffffff" x="760" y="-7662.25" width="99.95" height="54"/>
    <rect style="fill: none; fill-opacity:0; stroke-width: 2; stroke: #000000" x="760" y="-7662.25" width="99.95" height="54"/>
    <text style="fill: #000000;text-anchor:middle;font-size:12.7998;font-family:sanserif;font-style:normal;font-weight:normal" x="809.975" y="-7639.35">
      <tspan x="809.975" y="-7639.35">UNLOAD</tspan>
      <tspan x="809.975" y="-7623.35">ADVANCING</tspan>
    </text>
  </g>
  <g>
    <rect style="fill: #ffffff" x="843" y="-7527.25" width="78.3" height="54"/>
    <rect style="fill: none; fill-opacity:0; stroke-width: 2; stroke: #000000" x="843" y="-7527.25" width="78.3" height="54"/>
    <text style="fill: #000000;text-anchor:middle;font-size:12.7998;font-family:sanserif;font-style:normal;font-weight:normal" x="882.15" y="-7504.35">
      <tspan x="882.15" y="-7504.35">UNLOAD</tspan>
      <tspan x="882.15" y="-7488.35">WAITING</tspan>
    </text>
  </g>
  <g>
    <rect style="fill: #ffffff" x="941" y="-7456.25" width="121.1" height="38"/>
    <rect style="fill: none; fill-opacity:0; stroke-width: 2; stroke: #000000" x="941" y="-7456.25" width="121.1" height="38"/>
    <text style="fill: #000000;text-anchor:middle;font-size:12.7998;font-family:sanserif;font-style:normal;font-weight:normal" x="1001.55" y="-7433.35">
      <tspan x="1001.55" y="-7433.35">DISEMBARKING</tspan>
    </text>
  </g>
  <g>
    <rect style="fill: #ffffff" x="820" y="-7304.25" width="78.3" height="54"/>
    <rect style="fill: none; fill-opacity:0; stroke-width: 2; stroke: #000000" x="820" y="-7304.25" width="78.3" height="54"/>
    <text style="fill: #000000;text-anchor:middle;font-size:12.7998;font-family:sanserif;font-style:normal;font-weight:normal" x="859.15" y="-7281.35">
      <tspan x="859.15" y="-7281.35">LOAD</tspan>
      <tspan x="859.15" y="-7265.35">WAITING</tspan>
    </text>
  </g>
  <g>
    <rect style="fill: #ffffff" x="758.941" y="-7441.28" width="99.95" height="54"/>
    <rect style="fill: none; fill-opacity:0; stroke-width: 2; stroke: #000000" x="758.941" y="-7441.28" width="99.95" height="54"/>
    <text style="fill: #000000;text-anchor:middle;font-size:12.7998;font-family:sanserif;font-style:normal;font-weight:normal" x="808.916" y="-7418.38">
      <tspan x="808.916" y="-7418.38">LOAD</tspan>
      <tspan x="808.916" y="-7402.38">ADVANCING</tspan>
    </text>
  </g>
  <g>
    <rect style="fill: #ffffff" x="951.35" y="-7234.25" width="99.3" height="38"/>
    <rect style="fill: none; fill-opacity:0; stroke-width: 2; stroke: #000000" x="951.35" y="-7234.25" width="99.3" height="38"/>
    <text style="fill: #000000;text-anchor:middle;font-size:12.7998;font-family:sanserif;font-style:normal;font-weight:normal" x="1001" y="-7211.35">
      <tspan x="1001" y="-7211.35">EMBARKING</tspan>
    </text>
  </g>
  <g>
    <rect style="fill: #ffffff" x="932" y="-7115.25" width="78.3" height="54"/>
    <rect style="fill: none; fill-opacity:0; stroke-width: 2; stroke: #000000" x="932" y="-7115.25" width="78.3" height="54"/>
    <text style="fill: #000000;text-anchor:middle;font-size:12.7998;font-family:sanserif;font-style:normal;font-weight:normal" x="971.15" y="-7092.35">
      <tspan x="971.15" y="-7092.35">EXIT</tspan>
      <tspan x="971.15" y="-7076.35">WAITING</tspan>
    </text>
  </g>
  <g>
    <rect style="fill: #ffffff" x="1104.12" y="-7063.89" width="99.95" height="54"/>
    <rect style="fill: none; fill-opacity:0; stroke-width: 2; stroke: #000000" x="1104.12" y="-7063.89" width="99.95" height="54"/>
    <text style="fill: #000000;text-anchor:middle;font-size:12.7998;font-family:sanserif;font-style:normal;font-weight:normal" x="1154.1" y="-7040.99">
      <tspan x="1154.1" y="-7040.99">EXIT</tspan>
      <tspan x="1154.1" y="-7024.99">ADVANCING</tspan>
    </text>
  </g>
  <g>
    <rect style="fill: #ffffff" x="718.85" y="-7084.41" width="78.3" height="54"/>
    <rect style="fill: none; fill-opacity:0; stroke-width: 2; stroke: #000000" x="718.85" y="-7084.41" width="78.3" height="54"/>
    <text style="fill: #000000;text-anchor:middle;font-size:12.7998;font-family:sanserif;font-style:normal;font-weight:normal" x="758" y="-7061.51">
      <tspan x="758" y="-7061.51">LAUNCH</tspan>
      <tspan x="758" y="-7045.51">WAITING</tspan>
    </text>
  </g>
  <g>
    <rect style="fill: #ffffff" x="533.829" y="-7194.6" width="98.75" height="38"/>
    <rect style="fill: none; fill-opacity:0; stroke-width: 2; stroke: #000000" x="533.829" y="-7194.6" width="98.75" height="38"/>
    <text style="fill: #000000;text-anchor:middle;font-size:12.7998;font-family:sanserif;font-style:normal;font-weight:normal" x="583.204" y="-7171.7">
      <tspan x="583.204" y="-7171.7">LAUNCHING</tspan>
    </text>
  </g>
  <g>
    <path style="fill: none; fill-opacity:0; stroke-width: 2; stroke: #000000" d="M 921.3 -7500.25 C 976.918,-7498.5 992.849,-7485.92 998.81,-7465.59"/>
    <polygon style="fill: #000000" points="1000.92,-7458.4 993.309,-7466.58 998.81,-7465.59 1002.9,-7469.4 "/>
    <polygon style="fill: none; fill-opacity:0; stroke-width: 2; stroke: #000000" points="1000.92,-7458.4 993.309,-7466.58 998.81,-7465.59 1002.9,-7469.4 "/>
  </g>
  <text style="fill: #000000;text-anchor:start;font-size:12.7998;font-family:sanserif;font-style:normal;font-weight:normal" x="966.493" y="-7513.12">
    <tspan x="966.493" y="-7513.12">Cannot</tspan>
    <tspan x="966.493" y="-7497.12">Advance</tspan>
  </text>
  <g>
    <path style="fill: none; fill-opacity:0; stroke-width: 2; stroke: #000000" d="M 788.135 -7607.25 C 756.16,-7566.25 777.865,-7519.76 832.445,-7509.55"/>
    <polygon style="fill: #000000" points="839.818,-7508.17 829.069,-7505.09 832.445,-7509.55 830.907,-7514.92 "/>
    <polygon style="fill: none; fill-opacity:0; stroke-width: 2; stroke: #000000" points="839.818,-7508.17 829.069,-7505.09 832.445,-7509.55 830.907,-7514.92 "/>
  </g>
  <text style="fill: #000000;text-anchor:start;font-size:12.7998;font-family:sanserif;font-style:normal;font-weight:normal" x="636" y="-7408.25">
    <tspan x="636" y="-7408.25"></tspan>
  </text>
  <g>
    <path style="fill: none; fill-opacity:0; stroke-width: 2; stroke: #000000" d="M 906.971 -7528.24 C 945.564,-7571.76 939.864,-7640.63 870.683,-7637.76"/>
    <polygon style="fill: #000000" points="863.19,-7637.45 872.975,-7642.86 870.683,-7637.76 873.388,-7632.87 "/>
    <polygon style="fill: none; fill-opacity:0; stroke-width: 2; stroke: #000000" points="863.19,-7637.45 872.975,-7642.86 870.683,-7637.76 873.388,-7632.87 "/>
  </g>
  <g>
    <path style="fill: none; fill-opacity:0; stroke-width: 2; stroke: #000000" d="M 790.89 -7386.29 C 761.915,-7341.29 806.004,-7277.25 809.274,-7277.25"/>
    <polygon style="fill: #000000" points="816.774,-7277.25 806.774,-7272.25 809.274,-7277.25 806.774,-7282.25 "/>
    <polygon style="fill: none; fill-opacity:0; stroke-width: 2; stroke: #000000" points="816.774,-7277.25 806.774,-7272.25 809.274,-7277.25 806.774,-7282.25 "/>
  </g>
  <g>
    <path style="fill: none; fill-opacity:0; stroke-width: 2; stroke: #000000" d="M 893.152 -7305.26 C 949.002,-7351.26 888.716,-7419.95 869.605,-7418.6"/>
    <polygon style="fill: #000000" points="862.124,-7418.06 871.744,-7423.76 869.605,-7418.6 872.453,-7413.79 "/>
    <polygon style="fill: none; fill-opacity:0; stroke-width: 2; stroke: #000000" points="862.124,-7418.06 871.744,-7423.76 869.605,-7418.6 872.453,-7413.79 "/>
  </g>
  <g>
    <path style="fill: none; fill-opacity:0; stroke-width: 2; stroke: #000000" d="M 899.298 -7277.25 C 946.392,-7277.25 970.73,-7280.11 987.613,-7243.94"/>
    <polygon style="fill: #000000" points="990.784,-7237.14 982.025,-7244.09 987.613,-7243.94 991.086,-7248.32 "/>
    <polygon style="fill: none; fill-opacity:0; stroke-width: 2; stroke: #000000" points="990.784,-7237.14 982.025,-7244.09 987.613,-7243.94 991.086,-7248.32 "/>
  </g>
  <g>
    <path style="fill: none; fill-opacity:0; stroke-width: 2; stroke: #000000" d="M 977.025 -7417.24 C 941.475,-7388.24 996.126,-7314.02 908.679,-7290.55"/>
    <polygon style="fill: #000000" points="901.435,-7288.6 909.797,-7296.02 908.679,-7290.55 912.39,-7286.37 "/>
    <polygon style="fill: none; fill-opacity:0; stroke-width: 2; stroke: #000000" points="901.435,-7288.6 909.797,-7296.02 908.679,-7290.55 912.39,-7286.37 "/>
  </g>
  <g>
    <path style="fill: none; fill-opacity:0; stroke-width: 2; stroke: #000000" d="M 998.959 -7195.25 C 993.959,-7146.25 973.656,-7195.25 972.034,-7125.98"/>
    <polygon style="fill: #000000" points="971.858,-7118.48 967.093,-7128.6 972.034,-7125.98 977.091,-7128.36 "/>
    <polygon style="fill: none; fill-opacity:0; stroke-width: 2; stroke: #000000" points="971.858,-7118.48 967.093,-7128.6 972.034,-7125.98 977.091,-7128.36 "/>
  </g>
  <g>
    <path style="fill: none; fill-opacity:0; stroke-width: 2; stroke: #000000" d="M 930.998 -7088.25 C 893.482,-7088.25 835.668,-7057.41 807.888,-7057.41"/>
    <polygon style="fill: #000000" points="800.388,-7057.41 810.388,-7062.41 807.888,-7057.41 810.388,-7052.41 "/>
    <polygon style="fill: none; fill-opacity:0; stroke-width: 2; stroke: #000000" points="800.388,-7057.41 810.388,-7062.41 807.888,-7057.41 810.388,-7052.41 "/>
  </g>
  <g>
    <path style="fill: none; fill-opacity:0; stroke-width: 2; stroke: #000000" d="M 1011.14 -7102.63 C 1048.56,-7116.08 1073.87,-7129.67 1123.54,-7072.22"/>
    <polygon style="fill: #000000" points="1128.45,-7066.55 1118.13,-7070.85 1123.54,-7072.22 1125.69,-7077.39 "/>
    <polygon style="fill: none; fill-opacity:0; stroke-width: 2; stroke: #000000" points="1128.45,-7066.55 1118.13,-7070.85 1123.54,-7072.22 1125.69,-7077.39 "/>
  </g>
  <g>
    <path style="fill: none; fill-opacity:0; stroke-width: 2; stroke: #000000" d="M 1103.12 -7024.81 C 1034.84,-7008.62 1029.11,-7017.19 1000.13,-7052.72"/>
    <polygon style="fill: #000000" points="995.39,-7058.53 1005.59,-7053.94 1000.13,-7052.72 997.836,-7047.62 "/>
    <polygon style="fill: none; fill-opacity:0; stroke-width: 2; stroke: #000000" points="995.39,-7058.53 1005.59,-7053.94 1000.13,-7052.72 997.836,-7047.62 "/>
  </g>
  <g>
    <path style="fill: none; fill-opacity:0; stroke-width: 2; stroke: #000000" d="M 717.857 -7057.41 C 653.897,-7057.41 639.208,-7115.46 608.463,-7148.47"/>
    <polygon style="fill: #000000" points="603.352,-7153.96 613.826,-7150.05 608.463,-7148.47 606.507,-7143.24 "/>
    <polygon style="fill: none; fill-opacity:0; stroke-width: 2; stroke: #000000" points="603.352,-7153.96 613.826,-7150.05 608.463,-7148.47 606.507,-7143.24 "/>
  </g>
  <g>
    <path style="fill: none; fill-opacity:0; stroke-width: 2; stroke: #000000" d="M 856.486 -7249.25 C 851.336,-7195.11 745.614,-7139.27 752.307,-7095.03"/>
    <polygon style="fill: #000000" points="753.429,-7087.62 746.99,-7096.75 752.307,-7095.03 756.877,-7098.25 "/>
    <polygon style="fill: none; fill-opacity:0; stroke-width: 2; stroke: #000000" points="753.429,-7087.62 746.99,-7096.75 752.307,-7095.03 756.877,-7098.25 "/>
  </g>
  <text style="fill: #000000;text-anchor:middle;font-size:12.7998;font-family:sanserif;font-style:normal;font-weight:normal" x="769.842" y="-7211.02">
    <tspan x="769.842" y="-7211.02">No Pax Available</tspan>
    <tspan x="769.842" y="-7195.02">AND</tspan>
    <tspan x="769.842" y="-7179.02">in Launch Berth</tspan>
    <tspan x="769.842" y="-7163.02">AND</tspan>
    <tspan x="769.842" y="-7147.02">Vehicle demand higher</tspan>
    <tspan x="769.842" y="-7131.02">at other stations</tspan>
  </text>
  <g>
    <path style="fill: none; fill-opacity:0; stroke-width: 2; stroke: #000000" d="M 550.232 -7195.6 C 515.507,-7216.66 489.521,-7319.19 488.574,-7352.38"/>
    <polygon style="fill: #000000" points="488.36,-7359.88 493.643,-7350.03 488.574,-7352.38 483.647,-7349.74 "/>
    <polygon style="fill: none; fill-opacity:0; stroke-width: 2; stroke: #000000" points="488.36,-7359.88 493.643,-7350.03 488.574,-7352.38 483.647,-7349.74 "/>
  </g>
  <text style="fill: #000000;text-anchor:start;font-size:12.7998;font-family:sanserif;font-style:normal;font-weight:normal" x="972.252" y="-7282.17">
    <tspan x="972.252" y="-7282.17">Cannot</tspan>
    <tspan x="972.252" y="-7266.17">Advance</tspan>
  </text>
  <text style="fill: #000000;text-anchor:middle;font-size:12.7998;font-family:sanserif;font-style:normal;font-weight:normal" x="968.745" y="-7595.75">
    <tspan x="968.745" y="-7595.75">Can</tspan>
    <tspan x="968.745" y="-7579.75">Advance</tspan>
  </text>
  <text style="fill: #000000;text-anchor:middle;font-size:12.7998;font-family:sanserif;font-style:normal;font-weight:normal" x="885.764" y="-7372.1">
    <tspan x="885.764" y="-7372.1">Can</tspan>
    <tspan x="885.764" y="-7356.1">Advance</tspan>
  </text>
  <text style="fill: #000000;text-anchor:middle;font-size:12.7998;font-family:sanserif;font-style:normal;font-weight:normal" x="829.448" y="-7567.74">
    <tspan x="829.448" y="-7567.74">SimNotify</tspan>
    <tspan x="829.448" y="-7551.74">VehicleStopped</tspan>
  </text>
  <text style="fill: #000000;text-anchor:middle;font-size:12.7998;font-family:sanserif;font-style:normal;font-weight:normal" x="729.759" y="-7343.09">
    <tspan x="729.759" y="-7343.09">SimNotify</tspan>
    <tspan x="729.759" y="-7327.09">VehicleStopped</tspan>
  </text>
  <text style="fill: #000000;text-anchor:middle;font-size:12.7998;font-family:sanserif;font-style:normal;font-weight:normal" x="1041.36" y="-7368.83">
    <tspan x="1041.36" y="-7368.83">SimComplete</tspan>
    <tspan x="1041.36" y="-7352.83">PassengersDisembark</tspan>
  </text>
  <text style="fill: #000000;text-anchor:middle;font-size:12.7998;font-family:sanserif;font-style:normal;font-weight:normal" x="1049.6" y="-7169.1">
    <tspan x="1049.6" y="-7169.1">SimComplete</tspan>
    <tspan x="1049.6" y="-7153.1">PassengersEmbark</tspan>
  </text>
  <text style="fill: #000000;text-anchor:middle;font-size:12.7998;font-family:sanserif;font-style:normal;font-weight:normal" x="1052.46" y="-6994.73">
    <tspan x="1052.46" y="-6994.73">SimNotify</tspan>
    <tspan x="1052.46" y="-6978.73">VehicleStopped</tspan>
  </text>
  <text style="fill: #000000;text-anchor:middle;font-size:12.7998;font-family:sanserif;font-style:normal;font-weight:normal" x="1069.85" y="-7093.55">
    <tspan x="1069.85" y="-7093.55">Can</tspan>
    <tspan x="1069.85" y="-7077.55">Advance</tspan>
  </text>
  <text style="fill: #000000;text-anchor:start;font-size:12.7998;font-family:sanserif;font-style:normal;font-weight:normal" x="821.829" y="-7046.13">
    <tspan x="821.829" y="-7046.13">in Launch Berth</tspan>
  </text>
  <text style="fill: #000000;text-anchor:middle;font-size:12.7998;font-family:sanserif;font-style:normal;font-weight:normal" x="623.225" y="-7086">
    <tspan x="623.225" y="-7086">Launch</tspan>
    <tspan x="623.225" y="-7070">Granted</tspan>
  </text>
  <text style="fill: #000000;text-anchor:middle;font-size:12.7998;font-family:sanserif;font-style:normal;font-weight:normal" x="440.365" y="-7302.28">
    <tspan x="440.365" y="-7302.28">SimNotify</tspan>
    <tspan x="440.365" y="-7286.28">VehicleExit</tspan>
    <tspan x="440.365" y="-7270.28">--</tspan>
    <tspan x="440.365" y="-7254.28">Vehicle exited</tspan>
    <tspan x="440.365" y="-7238.28">Station.ON_RAMP_II</tspan>
  </text>
  <text style="fill: #000000;text-anchor:middle;font-size:12.7998;font-family:sanserif;font-style:normal;font-weight:normal" x="439.573" y="-7546.53">
    <tspan x="439.573" y="-7546.53">SimNotify</tspan>
    <tspan x="439.573" y="-7530.53">VehicleExit</tspan>
    <tspan x="439.573" y="-7514.53">--</tspan>
    <tspan x="439.573" y="-7498.53">Vehicle exited</tspan>
    <tspan x="439.573" y="-7482.53">Station.split</tspan>
    <tspan x="439.573" y="-7466.53">AND</tspan>
    <tspan x="439.573" y="-7450.53">Vehicle nose</tspan>
    <tspan x="439.573" y="-7434.53">on any station</tspan>
    <tspan x="439.573" y="-7418.53">tracksegment</tspan>
  </text>
  <g>
    <polygon style="fill: #ffffff" points="617.445,-7579.16 686.025,-7531.77 617.445,-7484.38 548.865,-7531.77 "/>
    <polygon style="fill: none; fill-opacity:0; stroke-width: 2; stroke: #000000" points="617.445,-7579.16 686.025,-7531.77 617.445,-7484.38 548.865,-7531.77 "/>
    <text style="fill: #000000;text-anchor:middle;font-size:12.7998;font-family:sanserif;font-style:normal;font-weight:normal" x="617.445" y="-7535.87">
      <tspan x="617.445" y="-7535.87">Vehicle</tspan>
      <tspan x="617.445" y="-7519.87">Has Pax</tspan>
    </text>
  </g>
  <g>
    <path style="fill: none; fill-opacity:0; stroke-width: 2; stroke: #000000" d="M 489.618 -7402.11 C 493.846,-7446.78 496.612,-7531.77 538.129,-7531.77"/>
    <polygon style="fill: #000000" points="545.629,-7531.77 535.629,-7526.77 538.129,-7531.77 535.629,-7536.77 "/>
    <polygon style="fill: none; fill-opacity:0; stroke-width: 2; stroke: #000000" points="545.629,-7531.77 535.629,-7526.77 538.129,-7531.77 535.629,-7536.77 "/>
  </g>
  <g>
    <path style="fill: none; fill-opacity:0; stroke-width: 2; stroke: #000000" d="M 652.892 -7555.67 C 706.003,-7591.48 688.479,-7635.25 749.264,-7635.25"/>
    <polygon style="fill: #000000" points="756.764,-7635.25 746.764,-7630.25 749.264,-7635.25 746.764,-7640.25 "/>
    <polygon style="fill: none; fill-opacity:0; stroke-width: 2; stroke: #000000" points="756.764,-7635.25 746.764,-7630.25 749.264,-7635.25 746.764,-7640.25 "/>
  </g>
  <g>
    <path style="fill: none; fill-opacity:0; stroke-width: 2; stroke: #000000" d="M 656.527 -7510.39 C 712.697,-7479.67 688.896,-7414.28 748.216,-7414.28"/>
    <polygon style="fill: #000000" points="755.716,-7414.28 745.716,-7409.28 748.216,-7414.28 745.716,-7419.28 "/>
    <polygon style="fill: none; fill-opacity:0; stroke-width: 2; stroke: #000000" points="755.716,-7414.28 745.716,-7409.28 748.216,-7414.28 745.716,-7419.28 "/>
  </g>
  <text style="fill: #000000;text-anchor:start;font-size:12.7998;font-family:sanserif;font-style:normal;font-weight:normal" x="673.614" y="-7614.23">
    <tspan x="673.614" y="-7614.23">Yes</tspan>
  </text>
  <text style="fill: #000000;text-anchor:start;font-size:12.7998;font-family:sanserif;font-style:normal;font-weight:normal" x="707.012" y="-7459.24">
    <tspan x="707.012" y="-7459.24">No</tspan>
  </text>
  <text style="fill: #000000;text-anchor:start;font-size:12.7998;font-family:sanserif;font-style:normal;font-weight:normal" x="348.932" y="-7030.65">
    <tspan x="348.932" y="-7030.65">Author: Dan Homerick</tspan>
    <tspan x="348.932" y="-7014.65">Creation Date: Aug. 13th, 2010</tspan>
    <tspan x="348.932" y="-6998.65">Modified Date: Aug. 13th, 2010</tspan>
    <tspan x="348.932" y="-6982.65">Version: 1.0</tspan>
    <tspan x="348.932" y="-6966.65">Note: Update other formats when modified.</tspan>
  </text>
</svg>
